#This oreo box is created by majaja068
mtllib oero.mtl

v 0.000000 0.000000 0.000000
v 5.000000 0.000000 0.000000
v 0.000000 5.000000 0.000000
v 5.000000 5.000000 0.000000
v 0.000000 0.000000 20.000000
v 5.000000 0.000000 20.000000
v 0.000000 5.000000 20.000000
v 5.000000 5.000000 20.000000
vt 0.567547 0.963623 #01
vt 0.795419 0.963623 #02
vt 0.109250 0.823975 #03
vt 0.338898 0.823975 #04
vt 0.567547 0.823975 #05
vt 0.795419 0.823975 #06
vt 1.000000 0.823975 #07
vt 0.109425 0.235107 #08
vt 0.338898 0.235107 #09
vt 0.567547 0.235107 #10
vt 0.795419 0.235107 #11
vt 1.000000 0.235107 #12
vt 0.567547 0.095459 #13
vt 0.795419 0.095459 #14
vn  0.0000  0.0000 -1.0000
vn  0.0000 -1.0000  0.0000
vn  1.0000  0.0000  0.0000
vn  0.0000  1.0000  0.0000
vn -1.0000  0.0000  0.0000
vn  0.0000  0.0000  1.0000
usemtl oreo_box
f 1/10/1 3/13/1 2/11/1
f 2/11/1 3/13/1 4/14/1
f 1/10/2 6/06/2 5/05/2
f 1/10/2 2/11/2 6/06/2
f 2/11/3 8/07/3 6/06/3
f 2/11/3 4/12/3 8/07/3
f 3/09/4 8/03/4 4/08/4
f 3/09/4 7/04/4 8/03/4
f 1/10/5 5/05/5 7/04/5
f 1/10/5 7/04/5 3/09/5
f 5/05/6 6/06/6 7/01/6
f 6/06/6 8/02/6 7/01/6
